<svg id="Capa_1" data-name="Capa 1" xmlns="http://www.w3.org/2000/svg" viewBox="0 0 98.83 80.42"><defs><style>.cls-1{fill:#fff;}</style></defs><path class="cls-1" d="M1.9,70.45c2.86,9.63,8.76,16.15,16.61,18.34a22.4,22.4,0,1,0-3.92-41.64c.16-.66.32-1.29.5-1.91C19.43,29.69,28,22.7,32.63,22.7h.21a2,2,0,0,0,2-1.46L37.44,12a2,2,0,0,0-.23-1.6,2,2,0,0,0-1.35-.9,16.68,16.68,0,0,0-3-.27C20.27,9.2,7.32,22.83,2.07,41.6-.63,51.25-.69,61.76,1.9,70.45Z" transform="translate(0 -9.2)"/><path class="cls-1" d="M54,41.6c-2.69,9.65-2.76,20.16-.17,28.85,2.86,9.63,8.76,16.15,16.61,18.34a22.4,22.4,0,1,0-3.91-41.64c.15-.66.32-1.29.49-1.91C71.32,29.69,79.85,22.7,84.52,22.7h.2a2,2,0,0,0,2-1.46L89.33,12a2,2,0,0,0-.24-1.6,2,2,0,0,0-1.35-.9,16.65,16.65,0,0,0-3-.26C72.15,9.21,59.2,22.83,54,41.6Z" transform="translate(0 -9.2)"/></svg>